<svg width="291" height="140" viewBox="0 0 291 140" fill="none" xmlns="http://www.w3.org/2000/svg">
<path d="M128.474 0.303673C174.285 -1.57433 232.701 4.76068 269.083 33.3477C318.49 72.1687 273.278 113.481 230.225 126.655C204.249 134.603 188.382 137.321 161.932 139.582C113.512 141.04 58.182 135.402 18.669 104.377C-1.27351 88.7177 -7.39211 62.1587 10.9921 42.7217C39.568 12.5097 88.667 3.03767 128.474 0.303673Z" fill="#0B0F22"/>
<path d="M112.419 41.9647C134.402 44.0287 156.054 43.0877 178.024 42.1277C179.75 50.6357 181.463 59.1297 180.849 67.8457L109.08 67.8447C108.924 58.5397 110.543 50.9367 112.419 41.9647Z" fill="#F0F8F8"/>
<path d="M109.127 71.8197L181.267 71.8207C180.972 80.4187 179.909 88.9727 178.091 97.3817C173.255 97.8507 156.441 96.7807 150.333 96.7117C137.021 96.5607 125.742 96.9977 112.367 97.6907C110.207 89.2367 109.118 80.5447 109.127 71.8197Z" fill="#F0F8F8"/>
<path d="M142.49 3.73865C163.632 4.30765 170.423 21.2667 177.178 38.3827C168.265 38.7637 159.351 39.0967 150.435 39.3827C137.958 39.5577 125.492 38.8516 113.027 38.2766C119.522 22.0466 124.631 9.00865 142.49 3.73865Z" fill="#F0F8F8"/>
<path d="M123.176 101.11C136.143 99.3077 163.377 100.889 176.946 101.616C172.992 112.995 169.93 119.466 162.028 128.387C150.858 138.154 139.128 138.302 128.187 127.995C122.284 122.434 114.715 111.014 114.565 102.708C117.173 100.944 119.605 101.377 123.176 101.11Z" fill="#F0F8F8"/>
<path d="M240.508 71.8217C247.35 71.7737 281.415 70.8587 285.39 72.7877C289.384 82.1257 273.098 98.3587 266.302 103.925C262.783 106.635 258.846 109.004 255.086 111.396C245.91 108.621 237.774 106.618 228.442 104.408C236.344 92.3247 239.4 86.2547 240.508 71.8217Z" fill="#F0F8F8"/>
<path d="M253.297 28.8977C262.031 28.1017 290.723 56.1747 285.377 67.2257C281.308 68.3277 268.566 67.8737 263.685 67.8457H240.513C239.593 53.9347 236.005 46.7437 228.291 35.4157C236.874 33.6007 244.867 31.2747 253.297 28.8977Z" fill="#F0F8F8"/>
<path d="M3.80566 71.8777L49.731 71.8827C50.104 77.7287 50.51 79.3317 51.923 84.8437C53.172 89.7107 60.989 101.364 60.317 104.436L56.953 105.428C49.107 107.402 43.203 109.045 35.477 111.599C31.203 109.139 27.11 106.375 23.231 103.328C12.1839 94.7837 5.56466 85.7217 3.80566 71.8777Z" fill="#F0F8F8"/>
<path d="M34.614 28.6337C39.161 28.8537 56.238 34.0587 61.924 35.4357C53.857 46.5627 51.055 54.4177 49.707 67.8457H31.685L3.1145 67.8437C8.3356 47.2627 17.067 39.8967 34.614 28.6337Z" fill="#F0F8F8"/>
<path d="M185.243 71.8217L236.64 71.8177C235.824 83.6377 233.117 89.5387 226.942 99.4997L225.237 101.794C221.733 104.007 189.32 98.6888 181.722 97.9538C183.945 89.6348 184.85 80.3937 185.243 71.8217Z" fill="#F0F8F8"/>
<path d="M219.276 37.1227C230.825 34.8847 235.885 59.7237 236.623 67.8447L200.685 67.8457H185.268C185.038 58.9447 183.69 50.7767 181.818 42.1037C193.525 40.0837 206.615 39.2427 219.276 37.1227Z" fill="#F0F8F8"/>
<path d="M53.647 71.8727L105.023 71.8207C105.073 80.8897 107.549 88.9217 107.616 97.0957L105.859 98.5107C94.295 98.7497 77.554 101.557 65.823 103.312C57.807 91.0887 55.056 86.3027 53.647 71.8727Z" fill="#F0F8F8"/>
<path d="M66.0601 36.3827C79.6371 38.0347 94.7221 40.1797 108.42 41.9977C106.636 49.6677 106.681 60.3507 103.829 66.8737C103.35 67.9707 100.221 67.7367 98.4351 67.8457L53.2581 67.7607C55.4731 53.2627 57.7071 48.4377 66.0601 36.3827Z" fill="#F0F8F8"/>
<path d="M105.928 102.232L107.691 101.853C110.478 102.926 110.728 105.957 112.396 109.463C118.678 122.666 119.589 125.443 130.263 135.344C118.62 133.278 113.209 132.098 102.332 128.326C87.7221 122.192 80.7061 117.835 69.3591 106.95C79.1031 104.721 95.8971 102.994 105.928 102.232Z" fill="#F0F8F8"/>
<path d="M180.837 101.609C194.332 103.118 207.418 104.528 220.802 106.892C213.009 115.485 204.039 120.848 193.765 125.865C180.67 131.503 173.764 132.859 160.064 135.371C171.79 125.003 176.021 116.117 180.837 101.609Z" fill="#F0F8F8"/>
<path d="M127.169 5.02075L128.488 5.59375C126.062 8.92275 123.863 10.2848 121.459 13.3348C115.556 20.8218 112.5 29.2057 109.396 38.0687C98.495 37.0227 87.619 35.7348 76.775 34.2048C75.456 33.9678 73.358 33.3308 71.991 32.9658C70.616 20.6588 116.755 6.69775 127.169 5.02075Z" fill="#F0F8F8"/>
<path d="M160.59 4.67468C178.313 6.84768 208.752 17.0357 219.617 32.1567L217.964 33.3477C205.986 35.4807 193.144 36.6537 180.968 38.3007C176.235 23.2277 171.647 15.6127 160.59 4.67468Z" fill="#F0F8F8"/>
<path d="M64.0631 107.885C67.8201 110.355 71.0901 113.927 74.8231 116.889C84.7941 124.801 92.3701 128.475 103.837 133.484L83.9381 129.497C67.7551 125.818 54.8781 121.456 40.1641 114.022C48.0091 111.572 56.0641 109.787 64.0631 107.885Z" fill="#F0F8F8"/>
<path d="M225.449 107.871C233.619 109.245 242.02 111.681 249.934 114.084C238.44 120.694 222.091 125.428 209.392 128.82C202.84 130.438 193.397 132.005 186.58 133.324C203.887 126.166 212.414 120.938 225.449 107.871Z" fill="#F0F8F8"/>
<path d="M95.882 7.87866L98.181 8.05966C97.022 9.63766 84.441 15.5037 80.825 17.9787C74.888 22.0417 69.484 26.8337 64.739 32.2417L49.4921 28.3927C46.4431 27.5697 43.125 26.4197 40.092 25.4427C59.83 16.2407 74.647 11.8597 95.882 7.87866Z" fill="#F0F8F8"/>
<path d="M190.269 7.80273C199.256 7.88473 243.787 19.0097 248.265 25.4827L246.455 26.7587C240.363 28.7807 231.924 30.5937 225.533 32.1577C214.074 19.6377 205.1 15.0187 190.269 7.80273Z" fill="#F0F8F8"/>
</svg>
