<svg width="500" height="49" viewBox="0 0 500 49" fill="none" xmlns="http://www.w3.org/2000/svg">
<path d="M383.94 0.00897217L432.55 0.00500488L389.96 48.113H341.31L383.94 0.00897217Z" fill="#FEFEFE"/>
<path d="M116.94 0.000976562L165.44 0.00500488L122.82 48.113L74.1599 48.103L116.94 0.000976562Z" fill="#FEFEFE"/>
<path d="M317.23 0.000976562L365.82 0.00299072L323.06 48.103C307.96 48.143 289.5 48.613 274.7 47.813L317.23 0.000976562Z" fill="#FEFEFE"/>
<path d="M250.27 0.0269775L298.83 0C289.33 12.473 267.7 35.373 256.48 48.073L207.67 48.103L250.27 0.0269775Z" fill="#FEFEFE"/>
<path d="M450.64 0.00402832H499.26C485.68 15.973 470.55 32.383 456.54 48.103L408 48.113L450.64 0.00402832Z" fill="#FEFEFE"/>
<path d="M183.8 0.0139771L232 0.00402832C220.4 14.623 202.14 33.923 189.42 48.103L141.17 48.113C153.68 32.723 170.46 14.873 183.8 0.0139771Z" fill="#FEFEFE"/>
<path d="M50.1299 0.0139771L98.6001 0.000976562C87.2501 14.263 68.56 33.973 56 48.103H7.58008C20.8401 32.303 36.3399 15.563 50.1299 0.0139771Z" fill="#FEFEFE"/>
<path d="M0 0.00494385L32.0601 0.00292969L15.46 18.4429C10.59 24.1929 5.04001 30.193 0.0100098 35.873L0 0.00494385Z" fill="#FEFEFE"/>
</svg>
